# xmcd
#
# Track frame offsets:
#	150
#	13795
#	29778
#	42971
#	56767
#	81881
#	97594
#	118087
#	131183
#	149027
#
# Disc length: 2348 seconds
#
# Revision: 0
# Processed by: cddbd v1.5.2PL0 Copyright (c) Steve Scherf et al.
# Submitted via: audiograbber 1.83.01
#
DISCID=90092a0a
DTITLE=The Datsuns - The Datsuns
DYEAR=2002
DGENRE=Rock
TTITLE0=Sittin' Pretty
TTITLE1=MF From Hell
TTITLE2=Lady
TTITLE3=Harmonic Generator
TTITLE4=What Would I Know
TTITLE5=At Your Touch
TTITLE6=Fink For The Man
TTITLE7=In Love
TTITLE8=You Build Me Up (To Bring Me Down)
TTITLE9=Freeze Sucker
EXTD=
EXTT0=
EXTT1=
EXTT2=
EXTT3=
EXTT4=
EXTT5=
EXTT6=
EXTT7=
EXTT8=
EXTT9=
PLAYORDER=
